<svg width="32" height="32" viewBox="0 0 32 32" fill="none" xmlns="http://www.w3.org/2000/svg">
<path fill-rule="evenodd" clip-rule="evenodd" d="M15 9.75C14.8619 9.75 14.75 9.86193 14.75 10V10.25H17.25V10C17.25 9.86193 17.1381 9.75 17 9.75H15ZM18.75 10.25V10C18.75 9.0335 17.9665 8.25 17 8.25H15C14.0335 8.25 13.25 9.0335 13.25 10V10.25H9V11.75H10.25V22C10.25 22.9665 11.0335 23.75 12 23.75H20C20.9665 23.75 21.75 22.9665 21.75 22V12.9533H20.25V22C20.25 22.1381 20.1381 22.25 20 22.25H12C11.8619 22.25 11.75 22.1381 11.75 22V11.75H23V10.25H18.75ZM14.75 13V20H13.25V13H14.75ZM17.25 20V13H18.75V20H17.25Z" fill="#38405B"/>
</svg>
