<svg width="24" height="24" viewBox="0 0 24 24" fill="none" xmlns="http://www.w3.org/2000/svg">
<g id="Tokens">
<path id="Vector" d="M20.5314 15.1874L14.6082 4.90868C13.9857 3.85493 13.007 3.32056 11.9982 3.32056C11.4557 3.33959 10.9276 3.50081 10.4669 3.78808C10.0062 4.07534 9.62909 4.47859 9.37324 4.95743C9.32074 5.06243 3.46887 15.1874 3.46887 15.1874C3.2773 15.5198 3.15308 15.8867 3.10331 16.2671C3.05353 16.6476 3.07917 17.034 3.17876 17.4046C3.27835 17.7751 3.44994 18.1223 3.68374 18.4265C3.91754 18.7307 4.20896 18.9859 4.54137 19.1774C4.87377 19.369 5.24066 19.4932 5.62107 19.543C6.00149 19.5928 6.38798 19.5671 6.75849 19.4675C7.12899 19.3679 7.47626 19.1964 7.78045 18.9626C8.08464 18.7288 8.3398 18.4373 8.53137 18.1049L12.0001 12.0712L15.4782 18.0956C15.6603 18.4439 15.911 18.7519 16.2151 19.001C16.5192 19.2501 16.8704 19.4351 17.2478 19.5451C17.6253 19.655 18.021 19.6876 18.4113 19.6407C18.8016 19.5939 19.1784 19.4687 19.5191 19.2727C19.8598 19.0766 20.1573 18.8137 20.3939 18.4997C20.6304 18.1858 20.8011 17.8273 20.8957 17.4457C20.9902 17.0642 21.0067 16.6675 20.9441 16.2794C20.8815 15.8913 20.7411 15.5199 20.5314 15.1874ZM9.61512 5.59868C9.80262 4.97056 10.6407 3.76681 12.0001 3.76681C13.4289 3.76681 14.2314 5.07931 14.3851 5.59868C14.4738 5.91159 14.4976 6.23931 14.455 6.56174C14.4124 6.88417 14.3044 7.1945 14.1376 7.47368L12.0001 11.1768L9.86262 7.47368C9.69497 7.19484 9.58648 6.88448 9.5439 6.56192C9.50132 6.23935 9.52556 5.91148 9.61512 5.59868Z" fill="#38405B"/>
</g>
</svg>
