<svg width="24" height="24" viewBox="0 0 24 24" fill="none" xmlns="http://www.w3.org/2000/svg">
<path d="M8.5338 19.8142H3.96819C3.79916 19.8143 3.63306 19.77 3.48642 19.6859C3.33978 19.6019 3.21772 19.4808 3.13239 19.3349C3.04705 19.189 3.00142 19.0233 3.00003 18.8543C2.99864 18.6852 3.04155 18.5188 3.12447 18.3715L11.1746 4.09207C11.2589 3.94276 11.3813 3.81853 11.5294 3.73209C11.6775 3.64565 11.8459 3.6001 12.0174 3.6001C12.1888 3.6001 12.3572 3.64565 12.5053 3.73209C12.6534 3.81853 12.7759 3.94276 12.8602 4.09207L15.2726 8.35087C15.3579 8.49823 15.4028 8.66548 15.4028 8.83574C15.4028 9.006 15.3579 9.17325 15.2726 9.32061L9.37205 19.3376C9.28632 19.4835 9.16376 19.6043 9.01665 19.6879C8.86954 19.7716 8.70303 19.8151 8.5338 19.8142Z" fill="#38405B"/>
<path d="M13.7349 18.3678L16.4469 13.5301C16.5315 13.3808 16.6541 13.2567 16.8024 13.1703C16.9506 13.0839 17.1191 13.0384 17.2906 13.0384C17.4622 13.0384 17.6307 13.0839 17.7789 13.1703C17.9271 13.2567 18.0498 13.3808 18.1344 13.5301L20.8737 18.366C20.9574 18.5134 21.0009 18.6801 21 18.8496C20.9991 19.0191 20.9538 19.1853 20.8686 19.3318C20.7835 19.4783 20.6614 19.6 20.5146 19.6846C20.3677 19.7692 20.2013 19.8139 20.0318 19.8142H14.5805C14.411 19.8144 14.2444 19.7701 14.0973 19.6859C13.9502 19.6016 13.8278 19.4802 13.7423 19.3339C13.6567 19.1875 13.611 19.0213 13.6097 18.8518C13.6085 18.6823 13.6516 18.5154 13.7349 18.3678Z" fill="#38405B"/>
</svg>
