<svg width="24" height="24" viewBox="0 0 24 24" fill="none" xmlns="http://www.w3.org/2000/svg">
<path d="M17.2031 15.0038V12.6619L15.2981 13.7607V16.1044L17.2031 15.0038Z" fill="#38405B"/>
<path d="M17.2031 8.99629L15.2268 7.85442L11.9999 9.71817L8.77307 7.85442L6.79682 8.99629V11.0719L10.0781 12.9675V16.8994L11.9999 18.0094L13.9218 16.8994V12.9675L17.2031 11.0719V8.99629Z" fill="#38405B"/>
<path d="M20.5031 9.16691V7.09129L18.5268 5.94941L16.6031 7.05941L18.5793 8.20129V10.2769L20.5031 9.16691Z" fill="#38405B"/>
<path d="M5.42058 10.2769V8.20129L7.39683 7.05941L5.47308 5.94941L3.49683 7.09129V9.16691L5.42058 10.2769Z" fill="#38405B"/>
<path d="M6.79682 15.0038L8.70182 16.1044V13.7607L6.79682 12.6619V15.0038Z" fill="#38405B"/>
<path d="M13.9218 18.4894L11.9999 19.5994L10.0781 18.4894V20.7094L11.9999 21.8194L13.9218 20.7094V18.4894Z" fill="#38405B"/>
<path d="M13.8506 7.05942L11.9999 5.99067L10.1493 7.05942L11.9999 8.12817L13.8506 7.05942Z" fill="#38405B"/>
<path d="M18.5793 11.8669V15.7988L15.2981 17.6944V19.9144L20.5031 16.9088V10.7569L18.5793 11.8669Z" fill="#38405B"/>
<path d="M8.70183 17.6944L5.42058 15.7988V11.8669L3.49683 10.7569V16.9088L8.70183 19.9144V17.6944Z" fill="#38405B"/>
<path d="M8.77308 6.26441L12 4.40254L15.2268 6.26441L17.1506 5.15441L12 2.18066L6.84933 5.15441L8.77308 6.26441Z" fill="#38405B"/>
</svg>
