<svg width="24" height="24" viewBox="0 0 24 24" fill="none" xmlns="http://www.w3.org/2000/svg">
<path d="M17.9139 4.79629L12.9995 2.18629C12.691 2.02197 12.3468 1.93604 11.9973 1.93604C11.6478 1.93604 11.3036 2.02197 10.9951 2.18629L6.08076 4.79629C5.93015 4.87604 5.80413 4.99535 5.71625 5.14137C5.62837 5.28739 5.58196 5.45461 5.58201 5.62504V18.375C5.58196 18.5455 5.62837 18.7127 5.71625 18.8587C5.80413 19.0047 5.93015 19.124 6.08076 19.2038L10.9951 21.8138C11.3034 21.9787 11.6477 22.065 11.9973 22.065C12.347 22.065 12.6912 21.9787 12.9995 21.8138L17.9139 19.2038C18.0645 19.124 18.1905 19.0047 18.2784 18.8587C18.3663 18.7127 18.4127 18.5455 18.4126 18.375V5.62504C18.4127 5.45461 18.3663 5.28739 18.2784 5.14137C18.1905 4.99535 18.0645 4.87604 17.9139 4.79629ZM10.9314 8.71129L6.43138 11.0982V6.39941L10.9314 8.71129ZM11.5708 9.33754V14.4732C11.5107 14.4528 11.4524 14.4278 11.3964 14.3982L6.72013 11.9138L11.5708 9.33754ZM12.4239 9.33754L17.2745 11.9138L12.5983 14.3982C12.5422 14.4278 12.4839 14.4528 12.4239 14.4732V9.33754ZM13.0633 8.71129L17.5633 6.39941V11.0982L13.0633 8.71129ZM11.3964 2.94004C11.5814 2.84155 11.7877 2.79004 11.9973 2.79004C12.2069 2.79004 12.4133 2.84155 12.5983 2.94004L17.4376 5.50691L12.1145 8.23879C12.0366 8.22206 11.9561 8.22206 11.8783 8.23879L6.56263 5.50691L11.3964 2.94004ZM17.5126 18.45L12.5983 21.06C12.4134 21.1588 12.207 21.2105 11.9973 21.2105C11.7877 21.2105 11.5813 21.1588 11.3964 21.06L6.48013 18.45C6.46675 18.4425 6.45556 18.4317 6.44767 18.4185C6.43978 18.4054 6.43546 18.3904 6.43513 18.375V12.7313L10.9951 15.1538C11.3038 15.3175 11.6479 15.403 11.9973 15.403C12.3467 15.403 12.6908 15.3175 12.9995 15.1538L17.5595 12.7313V18.375C17.5592 18.3906 17.5547 18.4058 17.5464 18.419C17.5382 18.4322 17.5265 18.4429 17.5126 18.45Z" fill="#38405B"/>
<path d="M4.86013 18.5625V18.1388H4.00513V18.5625C4.00481 18.9696 4.1155 19.3691 4.32529 19.718C4.53508 20.0669 4.83603 20.3519 5.19575 20.5425L5.72075 20.8219L6.122 20.0719L5.597 19.7925C5.37355 19.6744 5.18673 19.4973 5.05683 19.2804C4.92692 19.0636 4.85889 18.8153 4.86013 18.5625Z" fill="#38405B"/>
<path d="M18.8045 3.45379L18.2795 3.17629L17.8782 3.92629L18.4033 4.20379C18.6269 4.32273 18.8137 4.50054 18.9436 4.71799C19.0735 4.93544 19.1414 5.18426 19.1401 5.43754V5.86504H19.9951V5.43754C19.9949 5.03005 19.884 4.63028 19.6743 4.2809C19.4646 3.93152 19.164 3.64564 18.8045 3.45379Z" fill="#38405B"/>
</svg>
