<svg width="24" height="24" viewBox="0 0 24 24" fill="none" xmlns="http://www.w3.org/2000/svg">
<path d="M20.7001 7.07999C20.6995 6.08878 20.3056 5.13832 19.6047 4.43743C18.9038 3.73654 17.9533 3.34255 16.9621 3.34204H16.9409C15.95 3.34255 14.9998 3.73627 14.299 4.43674C13.5981 5.13722 13.2039 6.08719 13.2029 7.07806V11.1442C12.8013 11.1771 12.3823 11.206 11.946 11.235L10.7875 11.3161V7.06841C10.784 6.08054 10.3897 5.13421 9.6908 4.43605C8.99191 3.73788 8.04517 3.34458 7.05731 3.34204H7.03607C6.04553 3.34306 5.09585 3.73701 4.39543 4.43742C3.69501 5.13784 3.30107 6.08752 3.30005 7.07806V16.9249C3.30107 17.9155 3.69501 18.8651 4.39543 19.5656C5.09585 20.266 6.04553 20.6599 7.03607 20.6609H7.05731C8.04818 20.6604 8.99835 20.2667 9.69919 19.5662C10.4 18.8658 10.7942 17.9158 10.7953 16.9249V12.8703C11.1969 12.8369 11.6145 12.8066 12.0483 12.7796C12.4345 12.7526 12.8206 12.7275 13.2068 12.6985V16.9249C13.2078 17.9158 13.602 18.8658 14.3028 19.5662C15.0037 20.2667 15.9538 20.6604 16.9447 20.6609H16.966C17.9558 20.6589 18.9045 20.2645 19.6041 19.5642C20.3037 18.8639 20.6971 17.9148 20.6981 16.9249V7.13791C20.7001 7.11861 20.7001 7.0993 20.7001 7.07999ZM7.03607 4.88665H7.05731C7.63868 4.88665 8.19628 5.11747 8.60755 5.52838C9.01883 5.93929 9.25014 6.49668 9.25065 7.07806V11.4667C8.21758 11.5719 7.20437 11.8215 6.24059 12.2081C5.73192 12.4247 5.26077 12.7206 4.84466 13.0847V7.07806C4.84517 6.49702 5.07621 5.93992 5.48707 5.52906C5.89793 5.1182 6.45503 4.88716 7.03607 4.88665ZM9.25065 16.9249C9.25014 17.5063 9.01883 18.0637 8.60755 18.4746C8.19628 18.8855 7.63868 19.1163 7.05731 19.1163H7.03607C6.45503 19.1158 5.89793 18.8848 5.48707 18.4739C5.07621 18.0631 4.84517 17.506 4.84466 16.9249C4.84466 14.2354 6.46649 13.4032 9.25065 13.0287V16.9249ZM14.7475 7.07806C14.7485 6.49684 14.98 5.93975 15.3912 5.52894C15.8023 5.11814 16.3596 4.88716 16.9409 4.88665H16.9621C17.5431 4.88716 18.1002 5.1182 18.5111 5.52906C18.922 5.93992 19.153 6.49702 19.1535 7.07806V7.14371C19.1284 9.78691 17.5104 10.6094 14.7475 10.9821V7.07806ZM16.9621 19.1163H16.9409C16.3596 19.1158 15.8023 18.8848 15.3912 18.474C14.98 18.0632 14.7485 17.5062 14.7475 16.9249V12.544C15.7805 12.4416 16.7938 12.1939 17.7576 11.8084C18.2662 11.5918 18.7374 11.2959 19.1535 10.9319V16.9249C19.153 17.506 18.922 18.0631 18.5111 18.4739C18.1002 18.8848 17.5431 19.1158 16.9621 19.1163Z" fill="#38405B"/>
</svg>
