<svg width="24" height="24" viewBox="0 0 24 24" fill="none" xmlns="http://www.w3.org/2000/svg">
<path d="M20.5578 9.61355H7.7187C7.69051 9.61383 7.66254 9.60852 7.63641 9.59793C7.61029 9.58733 7.58652 9.57166 7.56649 9.55183C7.54645 9.53199 7.53055 9.50838 7.5197 9.48236C7.50884 9.45634 7.50325 9.42843 7.50326 9.40024C7.56489 7.68198 8.2908 6.05467 9.52817 4.86089C10.7655 3.66711 12.4178 3 14.1372 3C15.8565 3 17.5088 3.66711 18.7462 4.86089C19.9836 6.05467 20.7095 7.68198 20.7711 9.40024C20.7711 9.45681 20.7486 9.51107 20.7086 9.55107C20.6686 9.59107 20.6144 9.61355 20.5578 9.61355Z" fill="#38405B"/>
<path d="M21.4025 11.8298H6.5455C6.41821 11.8298 6.29613 11.7793 6.20612 11.6893C6.11612 11.5993 6.06555 11.4772 6.06555 11.3499C6.06555 11.2226 6.11612 11.1005 6.20612 11.0105C6.29613 10.9205 6.41821 10.8699 6.5455 10.8699H21.4025C21.5298 10.8699 21.6519 10.9205 21.7419 11.0105C21.8319 11.1005 21.8824 11.2226 21.8824 11.3499C21.8824 11.4772 21.8319 11.5993 21.7419 11.6893C21.6519 11.7793 21.5298 11.8298 21.4025 11.8298Z" fill="#38405B"/>
<path d="M5.43843 11.3264C5.43843 11.6209 5.19968 11.8597 4.90516 11.8597C4.61064 11.8597 4.37189 11.6209 4.37189 11.3264C4.37189 11.0319 4.61064 10.7931 4.90516 10.7931C5.19968 10.7931 5.43843 11.0319 5.43843 11.3264Z" fill="#38405B"/>
<path d="M14.8795 13.1524C14.8795 13.0251 14.8289 12.903 14.7389 12.813C14.6489 12.723 14.5268 12.6724 14.3995 12.6724H3.37783C3.25054 12.6724 3.12847 12.723 3.03846 12.813C2.94845 12.903 2.89789 13.0251 2.89789 13.1524C2.89789 13.2796 2.94845 13.4017 3.03846 13.4917C3.12847 13.5817 3.25054 13.6323 3.37783 13.6323H14.3953C14.4586 13.6329 14.5215 13.6209 14.5802 13.597C14.639 13.5731 14.6924 13.5379 14.7374 13.4932C14.7824 13.4486 14.8182 13.3955 14.8425 13.337C14.8669 13.2785 14.8795 13.2157 14.8795 13.1524Z" fill="#38405B"/>
<path d="M2.2665 13.1524C2.2665 13.4469 2.02774 13.6856 1.73322 13.6856C1.43871 13.6856 1.19995 13.4469 1.19995 13.1524C1.19995 12.8578 1.43871 12.6191 1.73322 12.6191C2.02774 12.6191 2.2665 12.8578 2.2665 13.1524Z" fill="#38405B"/>
<path d="M6.43884 14.5218C6.31155 14.5218 6.18948 14.5724 6.09947 14.6624C6.00946 14.7524 5.9589 14.8744 5.9589 15.0017C5.9589 15.129 6.00946 15.2511 6.09947 15.3411C6.18948 15.4311 6.31155 15.4817 6.43884 15.4817H19.8027C19.93 15.4817 20.052 15.4311 20.1421 15.3411C20.2321 15.2511 20.2826 15.129 20.2826 15.0017C20.2826 14.8744 20.2321 14.7524 20.1421 14.6624C20.052 14.5724 19.93 14.5218 19.8027 14.5218H6.43884Z" fill="#38405B"/>
<path d="M5.23356 14.9655C5.23356 15.26 4.99481 15.4988 4.70029 15.4988C4.40577 15.4988 4.16701 15.26 4.16701 14.9655C4.16701 14.671 4.40577 14.4322 4.70029 14.4322C4.99481 14.4322 5.23356 14.671 5.23356 14.9655Z" fill="#38405B"/>
<path d="M9.711 16.8021C9.711 16.6748 9.66043 16.5527 9.57043 16.4627C9.48042 16.3727 9.35835 16.3221 9.23106 16.3221H4.13723C4.00994 16.3221 3.88786 16.3727 3.79785 16.4627C3.70785 16.5527 3.65728 16.6748 3.65728 16.8021C3.65728 16.9294 3.70785 17.0514 3.79785 17.1414C3.88786 17.2315 4.00994 17.282 4.13723 17.282H9.23106C9.35835 17.282 9.48042 17.2315 9.57043 17.1414C9.66043 17.0514 9.711 16.9294 9.711 16.8021Z" fill="#38405B"/>
<path d="M3.06422 16.8021C3.06422 17.0966 2.82547 17.3353 2.53095 17.3353C2.23643 17.3353 1.99767 17.0966 1.99767 16.8021C1.99767 16.5076 2.23643 16.2688 2.53095 16.2688C2.82547 16.2688 3.06422 16.5076 3.06422 16.8021Z" fill="#38405B"/>
<path d="M22.1064 16.3221H11.1764C11.0491 16.3221 10.9271 16.3727 10.8371 16.4627C10.7471 16.5527 10.6965 16.6748 10.6965 16.8021C10.6965 16.9294 10.7471 17.0514 10.8371 17.1414C10.9271 17.2315 11.0491 17.282 11.1764 17.282H22.1064C22.2337 17.282 22.3558 17.2315 22.4458 17.1414C22.5358 17.0514 22.5864 16.9294 22.5864 16.8021C22.5864 16.6748 22.5358 16.5527 22.4458 16.4627C22.3558 16.3727 22.2337 16.3221 22.1064 16.3221Z" fill="#38405B"/>
<path d="M20.1098 18.1928H13.3095C13.1822 18.1928 13.0602 18.2434 12.9702 18.3334C12.8802 18.4234 12.8296 18.5455 12.8296 18.6728C12.8296 18.8001 12.8802 18.9222 12.9702 19.0122C13.0602 19.1022 13.1822 19.1527 13.3095 19.1527H20.1098C20.2371 19.1527 20.3592 19.1022 20.4492 19.0122C20.5392 18.9222 20.5898 18.8001 20.5898 18.6728C20.5898 18.5455 20.5392 18.4234 20.4492 18.3334C20.3592 18.2434 20.2371 18.1928 20.1098 18.1928Z" fill="#38405B"/>
<path d="M12.2408 18.6728C12.2408 18.9673 12.002 19.2061 11.7075 19.2061C11.413 19.2061 11.1742 18.9673 11.1742 18.6728C11.1742 18.3783 11.413 18.1395 11.7075 18.1395C12.002 18.1395 12.2408 18.3783 12.2408 18.6728Z" fill="#38405B"/>
<path d="M15.7177 19.9868H9.13073C9.00344 19.9868 8.88136 20.0373 8.79136 20.1274C8.70135 20.2174 8.65078 20.3394 8.65078 20.4667C8.65078 20.594 8.70135 20.7161 8.79136 20.8061C8.88136 20.8961 9.00344 20.9467 9.13073 20.9467H15.7177C15.845 20.9467 15.9671 20.8961 16.0571 20.8061C16.1471 20.7161 16.1977 20.594 16.1977 20.4667C16.1977 20.3394 16.1471 20.2174 16.0571 20.1274C15.9671 20.0373 15.845 19.9868 15.7177 19.9868Z" fill="#38405B"/>
<path d="M8.10897 20.4667C8.10897 20.7612 7.87021 21 7.5757 21C7.28118 21 7.04242 20.7612 7.04242 20.4667C7.04242 20.1722 7.28118 19.9335 7.5757 19.9335C7.87021 19.9335 8.10897 20.1722 8.10897 20.4667Z" fill="#38405B"/>
</svg>
