<svg width="24" height="24" viewBox="0 0 24 24" fill="none" xmlns="http://www.w3.org/2000/svg">
<g id="Tokens/OP / Optimism/Default">
<g id="Logo">
<path d="M9.98724 13.2761C9.7999 13.4346 9.57174 13.5139 9.30274 13.5139C8.8416 13.5139 8.61103 13.2929 8.61103 12.851C8.61103 12.7453 8.62064 12.6444 8.63985 12.5483C8.72632 12.0824 8.81278 11.6885 8.89924 11.3667C8.9809 11.04 9.1154 10.7975 9.30274 10.6389C9.49488 10.4804 9.72545 10.4012 9.99445 10.4012C10.4508 10.4012 10.679 10.6197 10.679 11.0569C10.679 11.1625 10.6693 11.2658 10.6501 11.3667C10.5925 11.7029 10.5084 12.0968 10.3979 12.5483C10.3163 12.875 10.1794 13.1176 9.98724 13.2761Z" fill="#38405B"/>
<path d="M15.4338 11.5612C15.2849 11.6717 15.1096 11.7269 14.9078 11.7269H14.0792L14.353 10.4372H15.2177C15.4146 10.4372 15.5539 10.4756 15.6356 10.5525C15.7172 10.6245 15.7581 10.7302 15.7581 10.8695C15.7581 10.932 15.7509 11.004 15.7365 11.0857C15.6884 11.2922 15.5875 11.4507 15.4338 11.5612Z" fill="#38405B"/>
<path fill-rule="evenodd" clip-rule="evenodd" d="M11.9999 21.5999C17.3018 21.5999 21.5999 17.3018 21.5999 11.9999C21.5999 6.69797 17.3018 2.3999 11.9999 2.3999C6.69797 2.3999 2.3999 6.69797 2.3999 11.9999C2.3999 17.3018 6.69797 21.5999 11.9999 21.5999ZM7.79683 14.1479C8.1619 14.4169 8.63024 14.5514 9.20186 14.5514C9.89357 14.5514 10.446 14.3905 10.8591 14.0687C11.2722 13.742 11.5628 13.2497 11.7309 12.5916C11.8318 12.1881 11.9183 11.7726 11.9903 11.3451C12.0143 11.1913 12.0263 11.0641 12.0263 10.9632C12.0263 10.6269 11.9423 10.3387 11.7742 10.0985C11.606 9.85357 11.3755 9.67103 11.0824 9.55094C10.7894 9.42605 10.458 9.36361 10.0881 9.36361C8.72872 9.36361 7.8857 10.0241 7.55906 11.3451C7.44377 11.8302 7.35491 12.2457 7.29246 12.5916C7.26844 12.7453 7.25643 12.875 7.25643 12.9807C7.25643 13.485 7.43657 13.8741 7.79683 14.1479ZM12.2347 14.4289C12.2635 14.4626 12.3043 14.4794 12.3572 14.4794H13.3371C13.3851 14.4794 13.4308 14.4626 13.474 14.4289C13.5172 14.3953 13.5436 14.3521 13.5532 14.2992L13.8847 12.7213H14.8574C15.4867 12.7213 15.9814 12.5892 16.3417 12.325C16.7068 12.0608 16.9493 11.6525 17.0694 11.1001C17.0983 10.9704 17.1127 10.8455 17.1127 10.7254C17.1127 10.3075 16.9493 9.98807 16.6227 9.7671C16.3009 9.54614 15.8734 9.43566 15.3402 9.43566H13.4235C13.3755 9.43566 13.3299 9.45247 13.2866 9.4861C13.2434 9.51972 13.217 9.56295 13.2074 9.61579L12.2131 14.2992C12.2035 14.3473 12.2107 14.3905 12.2347 14.4289Z" fill="#38405B"/>
</g>
</g>
</svg>
