<svg width="24" height="24" viewBox="0 0 24 24" fill="none" xmlns="http://www.w3.org/2000/svg">
<g id="Tokens">
<path id="Vector" d="M15.8658 8.69418L8.14122 13.1583C7.99898 13.2395 7.83798 13.2823 7.67415 13.2823C7.51032 13.2823 7.34933 13.2395 7.20709 13.1583L4.73343 11.7337C4.59319 11.6506 4.47712 11.5323 4.39676 11.3905C4.31639 11.2487 4.27454 11.0883 4.27535 10.9253V8.07622C4.27546 7.91235 4.31867 7.75139 4.40065 7.60949C4.48263 7.4676 4.6005 7.34977 4.74242 7.26784L7.20888 5.84329C7.35113 5.762 7.51212 5.71924 7.67595 5.71924C7.83978 5.71924 8.00077 5.762 8.14302 5.84329L10.6095 7.26784C10.7514 7.34977 10.8693 7.4676 10.9512 7.60949C11.0332 7.75139 11.0764 7.91235 11.0765 8.07622V9.44329C11.0766 9.48408 11.0873 9.52415 11.1077 9.55951C11.128 9.59486 11.1573 9.62427 11.1925 9.6448C11.2278 9.66534 11.2678 9.67628 11.3086 9.67654C11.3494 9.6768 11.3895 9.66636 11.4251 9.64628L12.7095 8.90436C12.7802 8.86331 12.8389 8.80433 12.8796 8.73336C12.9203 8.6624 12.9415 8.58197 12.9412 8.50017V6.99838C12.9411 6.83471 12.8981 6.67394 12.8165 6.5321C12.7348 6.39025 12.6174 6.27229 12.476 6.18999L8.13403 3.68939C7.99209 3.60723 7.83098 3.56396 7.66697 3.56396C7.50296 3.56396 7.34185 3.60723 7.1999 3.68939L2.86697 6.18999C2.72505 6.27193 2.60718 6.38976 2.5252 6.53165C2.44322 6.67354 2.40001 6.8345 2.3999 6.99838V12.0032C2.40001 12.167 2.44322 12.328 2.5252 12.4699C2.60718 12.6118 2.72505 12.7296 2.86697 12.8115L7.1999 15.3121C7.34185 15.3943 7.50296 15.4376 7.66697 15.4376C7.83098 15.4376 7.99209 15.3943 8.13403 15.3121L15.8586 10.8481C16.0008 10.7668 16.1618 10.724 16.3257 10.724C16.4895 10.724 16.6505 10.7668 16.7927 10.8481L19.2592 12.2726C19.4011 12.3546 19.519 12.4724 19.601 12.6143C19.6829 12.7562 19.7261 12.9171 19.7262 13.081V15.9301C19.7261 16.094 19.6829 16.2549 19.601 16.3968C19.519 16.5387 19.4011 16.6566 19.2592 16.7385L16.7999 18.163C16.6577 18.2443 16.4967 18.2871 16.3328 18.2871C16.169 18.2871 16.008 18.2443 15.8658 18.163L13.3993 16.7385C13.2574 16.6566 13.1395 16.5387 13.0575 16.3968C12.9756 16.2549 12.9323 16.094 12.9322 15.9301V14.5612C12.9324 14.5204 12.9218 14.4802 12.9014 14.4448C12.8811 14.4094 12.8517 14.38 12.8164 14.3595C12.781 14.3391 12.7408 14.3284 12.7 14.3285C12.6591 14.3286 12.619 14.3395 12.5837 14.3601L11.2993 15.1002C11.2287 15.1414 11.1701 15.2004 11.1294 15.2713C11.0888 15.3422 11.0674 15.4226 11.0676 15.5044V17.008C11.0677 17.1716 11.1107 17.3324 11.1923 17.4742C11.274 17.6161 11.3914 17.734 11.5328 17.8163L15.8658 20.3169C16.0077 20.3991 16.1688 20.4424 16.3328 20.4424C16.4968 20.4424 16.658 20.3991 16.7999 20.3169L21.1328 17.8163C21.2748 17.7344 21.3926 17.6166 21.4746 17.4747C21.5566 17.3328 21.5998 17.1718 21.5999 17.008V12.0032C21.5998 11.8393 21.5566 11.6783 21.4746 11.5364C21.3926 11.3945 21.2748 11.2767 21.1328 11.1948L16.7999 8.69418C16.658 8.61202 16.4968 8.56876 16.3328 8.56876C16.1688 8.56876 16.0077 8.61202 15.8658 8.69418Z" fill="#38405B"/>
</g>
</svg>
