<svg width="96" height="96" viewBox="0 0 96 96" fill="none" xmlns="http://www.w3.org/2000/svg">
    <g clip-path="url(#clip0_561_132338)">
        <path d="M96 0H0V96H96V0Z" fill="white"/>
        <path d="M2.23267 2.23267H4.46522V4.46522H2.23267V2.23267ZM4.46522 2.23267H6.69778V4.46522H4.46522V2.23267ZM6.69778 2.23267H8.93034V4.46522H6.69778V2.23267ZM8.93034 2.23267H11.1629V4.46522H8.93034V2.23267ZM11.1629 2.23267H13.3955V4.46522H11.1629V2.23267ZM13.3955 2.23267H15.628V4.46522H13.3955V2.23267ZM15.628 2.23267H17.8606V4.46522H15.628V2.23267ZM24.5582 2.23267H26.7908V4.46522H24.5582V2.23267ZM33.4885 2.23267H35.721V4.46522H33.4885V2.23267ZM35.721 2.23267H37.9536V4.46522H35.721V2.23267ZM37.9536 2.23267H40.1862V4.46522H37.9536V2.23267ZM40.1862 2.23267H42.4187V4.46522H40.1862V2.23267ZM49.1164 2.23267H51.3489V4.46522H49.1164V2.23267ZM51.3489 2.23267H53.5815V4.46522H51.3489V2.23267ZM55.8141 2.23267H58.0466V4.46522H55.8141V2.23267ZM58.0466 2.23267H60.2792V4.46522H58.0466V2.23267ZM60.2792 2.23267H62.5117V4.46522H60.2792V2.23267ZM64.7443 2.23267H66.9769V4.46522H64.7443V2.23267ZM66.9769 2.23267H69.2094V4.46522H66.9769V2.23267ZM69.2094 2.23267H71.442V4.46522H69.2094V2.23267ZM71.442 2.23267H73.6745V4.46522H71.442V2.23267ZM73.6745 2.23267H75.9071V4.46522H73.6745V2.23267ZM78.1396 2.23267H80.3722V4.46522H78.1396V2.23267ZM80.3722 2.23267H82.6048V4.46522H80.3722V2.23267ZM82.6048 2.23267H84.8373V4.46522H82.6048V2.23267ZM84.8373 2.23267H87.0699V4.46522H84.8373V2.23267ZM87.0699 2.23267H89.3024V4.46522H87.0699V2.23267ZM89.3024 2.23267H91.535V4.46522H89.3024V2.23267ZM91.535 2.23267H93.7675V4.46522H91.535V2.23267ZM2.23267 4.46522H4.46522V6.69778H2.23267V4.46522ZM15.628 4.46522H17.8606V6.69778H15.628V4.46522ZM20.0931 4.46522H22.3257V6.69778H20.0931V4.46522ZM24.5582 4.46522H26.7908V6.69778H24.5582V4.46522ZM26.7908 4.46522H29.0234V6.69778H26.7908V4.46522ZM29.0234 4.46522H31.2559V6.69778H29.0234V4.46522ZM35.721 4.46522H37.9536V6.69778H35.721V4.46522ZM37.9536 4.46522H40.1862V6.69778H37.9536V4.46522ZM40.1862 4.46522H42.4187V6.69778H40.1862V4.46522ZM42.4187 4.46522H44.6513V6.69778H42.4187V4.46522ZM49.1164 4.46522H51.3489V6.69778H49.1164V4.46522ZM53.5815 4.46522H55.8141V6.69778H53.5815V4.46522ZM58.0466 4.46522H60.2792V6.69778H58.0466V4.46522ZM60.2792 4.46522H62.5117V6.69778H60.2792V4.46522ZM62.5117 4.46522H64.7443V6.69778H62.5117V4.46522ZM66.9769 4.46522H69.2094V6.69778H66.9769V4.46522ZM78.1396 4.46522H80.3722V6.69778H78.1396V4.46522ZM91.535 4.46522H93.7675V6.69778H91.535V4.46522ZM2.23267 6.69778H4.46522V8.93034H2.23267V6.69778ZM6.69778 6.69778H8.93034V8.93034H6.69778V6.69778ZM8.93034 6.69778H11.1629V8.93034H8.93034V6.69778ZM11.1629 6.69778H13.3955V8.93034H11.1629V6.69778ZM15.628 6.69778H17.8606V8.93034H15.628V6.69778ZM26.7908 6.69778H29.0234V8.93034H26.7908V6.69778ZM33.4885 6.69778H35.721V8.93034H33.4885V6.69778ZM35.721 6.69778H37.9536V8.93034H35.721V6.69778ZM37.9536 6.69778H40.1862V8.93034H37.9536V6.69778ZM44.6513 6.69778H46.8838V8.93034H44.6513V6.69778ZM46.8838 6.69778H49.1164V8.93034H46.8838V6.69778ZM49.1164 6.69778H51.3489V8.93034H49.1164V6.69778ZM51.3489 6.69778H53.5815V8.93034H51.3489V6.69778ZM55.8141 6.69778H58.0466V8.93034H55.8141V6.69778ZM71.442 6.69778H73.6745V8.93034H71.442V6.69778ZM73.6745 6.69778H75.9071V8.93034H73.6745V6.69778ZM78.1396 6.69778H80.3722V8.93034H78.1396V6.69778ZM82.6048 6.69778H84.8373V8.93034H82.6048V6.69778ZM84.8373 6.69778H87.0699V8.93034H84.8373V6.69778ZM87.0699 6.69778H89.3024V8.93034H87.0699V6.69778ZM91.535 6.69778H93.7675V8.93034H91.535V6.69778ZM2.23267 8.93034H4.46522V11.1629H2.23267V8.93034ZM6.69778 8.93034H8.93034V11.1629H6.69778V8.93034ZM8.93034 8.93034H11.1629V11.1629H8.93034V8.93034ZM11.1629 8.93034H13.3955V11.1629H11.1629V8.93034ZM15.628 8.93034H17.8606V11.1629H15.628V8.93034ZM20.0931 8.93034H22.3257V11.1629H20.0931V8.93034ZM22.3257 8.93034H24.5582V11.1629H22.3257V8.93034ZM24.5582 8.93034H26.7908V11.1629H24.5582V8.93034ZM26.7908 8.93034H29.0234V11.1629H26.7908V8.93034ZM29.0234 8.93034H31.2559V11.1629H29.0234V8.93034ZM44.6513 8.93034H46.8838V11.1629H44.6513V8.93034ZM49.1164 8.93034H51.3489V11.1629H49.1164V8.93034ZM60.2792 8.93034H62.5117V11.1629H60.2792V8.93034ZM71.442 8.93034H73.6745V11.1629H71.442V8.93034ZM78.1396 8.93034H80.3722V11.1629H78.1396V8.93034ZM82.6048 8.93034H84.8373V11.1629H82.6048V8.93034ZM84.8373 8.93034H87.0699V11.1629H84.8373V8.93034ZM87.0699 8.93034H89.3024V11.1629H87.0699V8.93034ZM91.535 8.93034H93.7675V11.1629H91.535V8.93034ZM2.23267 11.1629H4.46522V13.3955H2.23267V11.1629ZM6.69778 11.1629H8.93034V13.3955H6.69778V11.1629ZM8.93034 11.1629H11.1629V13.3955H8.93034V11.1629ZM11.1629 11.1629H13.3955V13.3955H11.1629V11.1629ZM15.628 11.1629H17.8606V13.3955H15.628V11.1629ZM22.3257 11.1629H24.5582V13.3955H22.3257V11.1629ZM24.5582 11.1629H26.7908V13.3955H24.5582V11.1629ZM26.7908 11.1629H29.0234V13.3955H26.7908V11.1629ZM29.0234 11.1629H31.2559V13.3955H29.0234V11.1629ZM31.2559 11.1629H33.4885V13.3955H31.2559V11.1629ZM33.4885 11.1629H35.721V13.3955H33.4885V11.1629ZM35.721 11.1629H37.9536V13.3955H35.721V11.1629ZM37.9536 11.1629H40.1862V13.3955H37.9536V11.1629ZM40.1862 11.1629H42.4187V13.3955H40.1862V11.1629ZM42.4187 11.1629H44.6513V13.3955H42.4187V11.1629ZM49.1164 11.1629H51.3489V13.3955H49.1164V11.1629ZM55.8141 11.1629H58.0466V13.3955H55.8141V11.1629ZM62.5117 11.1629H64.7443V13.3955H62.5117V11.1629ZM69.2094 11.1629H71.442V13.3955H69.2094V11.1629ZM78.1396 11.1629H80.3722V13.3955H78.1396V11.1629ZM82.6048 11.1629H84.8373V13.3955H82.6048V11.1629ZM84.8373 11.1629H87.0699V13.3955H84.8373V11.1629ZM87.0699 11.1629H89.3024V13.3955H87.0699V11.1629ZM91.535 11.1629H93.7675V13.3955H91.535V11.1629ZM2.23267 13.3955H4.46522V15.628H2.23267V13.3955ZM15.628 13.3955H17.8606V15.628H15.628V13.3955ZM20.0931 13.3955H22.3257V15.628H20.0931V13.3955ZM22.3257 13.3955H24.5582V15.628H22.3257V13.3955ZM24.5582 13.3955H26.7908V15.628H24.5582V13.3955ZM26.7908 13.3955H29.0234V15.628H26.7908V13.3955ZM29.0234 13.3955H31.2559V15.628H29.0234V13.3955ZM31.2559 13.3955H33.4885V15.628H31.2559V13.3955ZM49.1164 13.3955H51.3489V15.628H49.1164V13.3955ZM51.3489 13.3955H53.5815V15.628H51.3489V13.3955ZM53.5815 13.3955H55.8141V15.628H53.5815V13.3955ZM55.8141 13.3955H58.0466V15.628H55.8141V13.3955ZM62.5117 13.3955H64.7443V15.628H62.5117V13.3955ZM66.9769 13.3955H69.2094V15.628H66.9769V13.3955ZM69.2094 13.3955H71.442V15.628H69.2094V13.3955ZM73.6745 13.3955H75.9071V15.628H73.6745V13.3955ZM78.1396 13.3955H80.3722V15.628H78.1396V13.3955ZM91.535 13.3955H93.7675V15.628H91.535V13.3955ZM2.23267 15.628H4.46522V17.8606H2.23267V15.628ZM4.46522 15.628H6.69778V17.8606H4.46522V15.628ZM6.69778 15.628H8.93034V17.8606H6.69778V15.628ZM8.93034 15.628H11.1629V17.8606H8.93034V15.628ZM11.1629 15.628H13.3955V17.8606H11.1629V15.628ZM13.3955 15.628H15.628V17.8606H13.3955V15.628ZM15.628 15.628H17.8606V17.8606H15.628V15.628ZM20.0931 15.628H22.3257V17.8606H20.0931V15.628ZM24.5582 15.628H26.7908V17.8606H24.5582V15.628ZM29.0234 15.628H31.2559V17.8606H29.0234V15.628ZM33.4885 15.628H35.721V17.8606H33.4885V15.628ZM37.9536 15.628H40.1862V17.8606H37.9536V15.628ZM42.4187 15.628H44.6513V17.8606H42.4187V15.628ZM46.8838 15.628H49.1164V17.8606H46.8838V15.628ZM51.3489 15.628H53.5815V17.8606H51.3489V15.628ZM55.8141 15.628H58.0466V17.8606H55.8141V15.628ZM60.2792 15.628H62.5117V17.8606H60.2792V15.628ZM64.7443 15.628H66.9769V17.8606H64.7443V15.628ZM69.2094 15.628H71.442V17.8606H69.2094V15.628ZM73.6745 15.628H75.9071V17.8606H73.6745V15.628ZM78.1396 15.628H80.3722V17.8606H78.1396V15.628ZM80.3722 15.628H82.6048V17.8606H80.3722V15.628ZM82.6048 15.628H84.8373V17.8606H82.6048V15.628ZM84.8373 15.628H87.0699V17.8606H84.8373V15.628ZM87.0699 15.628H89.3024V17.8606H87.0699V15.628ZM89.3024 15.628H91.535V17.8606H89.3024V15.628ZM91.535 15.628H93.7675V17.8606H91.535V15.628ZM22.3257 17.8606H24.5582V20.0931H22.3257V17.8606ZM24.5582 17.8606H26.7908V20.0931H24.5582V17.8606ZM29.0234 17.8606H31.2559V20.0931H29.0234V17.8606ZM33.4885 17.8606H35.721V20.0931H33.4885V17.8606ZM37.9536 17.8606H40.1862V20.0931H37.9536V17.8606ZM44.6513 17.8606H46.8838V20.0931H44.6513V17.8606ZM46.8838 17.8606H49.1164V20.0931H46.8838V17.8606ZM49.1164 17.8606H51.3489V20.0931H49.1164V17.8606ZM51.3489 17.8606H53.5815V20.0931H51.3489V17.8606ZM60.2792 17.8606H62.5117V20.0931H60.2792V17.8606ZM64.7443 17.8606H66.9769V20.0931H64.7443V17.8606ZM2.23267 20.0931H4.46522V22.3257H2.23267V20.0931ZM4.46522 20.0931H6.69778V22.3257H4.46522V20.0931ZM6.69778 20.0931H8.93034V22.3257H6.69778V20.0931ZM8.93034 20.0931H11.1629V22.3257H8.93034V20.0931ZM11.1629 20.0931H13.3955V22.3257H11.1629V20.0931ZM15.628 20.0931H17.8606V22.3257H15.628V20.0931ZM17.8606 20.0931H20.0931V22.3257H17.8606V20.0931ZM20.0931 20.0931H22.3257V22.3257H20.0931V20.0931ZM33.4885 20.0931H35.721V22.3257H33.4885V20.0931ZM37.9536 20.0931H40.1862V22.3257H37.9536V20.0931ZM42.4187 20.0931H44.6513V22.3257H42.4187V20.0931ZM44.6513 20.0931H46.8838V22.3257H44.6513V20.0931ZM49.1164 20.0931H51.3489V22.3257H49.1164V20.0931ZM53.5815 20.0931H55.8141V22.3257H53.5815V20.0931ZM58.0466 20.0931H60.2792V22.3257H58.0466V20.0931ZM60.2792 20.0931H62.5117V22.3257H60.2792V20.0931ZM66.9769 20.0931H69.2094V22.3257H66.9769V20.0931ZM71.442 20.0931H73.6745V22.3257H71.442V20.0931ZM75.9071 20.0931H78.1396V22.3257H75.9071V20.0931ZM80.3722 20.0931H82.6048V22.3257H80.3722V20.0931ZM84.8373 20.0931H87.0699V22.3257H84.8373V20.0931ZM89.3024 20.0931H91.535V22.3257H89.3024V20.0931ZM2.23267 22.3257H4.46522V24.5582H2.23267V22.3257ZM4.46522 22.3257H6.69778V24.5582H4.46522V22.3257ZM8.93034 22.3257H11.1629V24.5582H8.93034V22.3257ZM11.1629 22.3257H13.3955V24.5582H11.1629V22.3257ZM17.8606 22.3257H20.0931V24.5582H17.8606V22.3257ZM22.3257 22.3257H24.5582V24.5582H22.3257V22.3257ZM26.7908 22.3257H29.0234V24.5582H26.7908V22.3257ZM29.0234 22.3257H31.2559V24.5582H29.0234V22.3257ZM31.2559 22.3257H33.4885V24.5582H31.2559V22.3257ZM35.721 22.3257H37.9536V24.5582H35.721V22.3257ZM40.1862 22.3257H42.4187V24.5582H40.1862V22.3257ZM42.4187 22.3257H44.6513V24.5582H42.4187V22.3257ZM51.3489 22.3257H53.5815V24.5582H51.3489V22.3257ZM55.8141 22.3257H58.0466V24.5582H55.8141V22.3257ZM58.0466 22.3257H60.2792V24.5582H58.0466V22.3257ZM64.7443 22.3257H66.9769V24.5582H64.7443V22.3257ZM66.9769 22.3257H69.2094V24.5582H66.9769V22.3257ZM69.2094 22.3257H71.442V24.5582H69.2094V22.3257ZM71.442 22.3257H73.6745V24.5582H71.442V22.3257ZM78.1396 22.3257H80.3722V24.5582H78.1396V22.3257ZM80.3722 22.3257H82.6048V24.5582H80.3722V22.3257ZM82.6048 22.3257H84.8373V24.5582H82.6048V22.3257ZM84.8373 22.3257H87.0699V24.5582H84.8373V22.3257ZM2.23267 24.5582H4.46522V26.7908H2.23267V24.5582ZM15.628 24.5582H17.8606V26.7908H15.628V24.5582ZM17.8606 24.5582H20.0931V26.7908H17.8606V24.5582ZM29.0234 24.5582H31.2559V26.7908H29.0234V24.5582ZM31.2559 24.5582H33.4885V26.7908H31.2559V24.5582ZM33.4885 24.5582H35.721V26.7908H33.4885V24.5582ZM35.721 24.5582H37.9536V26.7908H35.721V24.5582ZM37.9536 24.5582H40.1862V26.7908H37.9536V24.5582ZM46.8838 24.5582H49.1164V26.7908H46.8838V24.5582ZM49.1164 24.5582H51.3489V26.7908H49.1164V24.5582ZM51.3489 24.5582H53.5815V26.7908H51.3489V24.5582ZM62.5117 24.5582H64.7443V26.7908H62.5117V24.5582ZM64.7443 24.5582H66.9769V26.7908H64.7443V24.5582ZM73.6745 24.5582H75.9071V26.7908H73.6745V24.5582ZM78.1396 24.5582H80.3722V26.7908H78.1396V24.5582ZM80.3722 24.5582H82.6048V26.7908H80.3722V24.5582ZM2.23267 26.7908H4.46522V29.0234H2.23267V26.7908ZM17.8606 26.7908H20.0931V29.0234H17.8606V26.7908ZM22.3257 26.7908H24.5582V29.0234H22.3257V26.7908ZM24.5582 26.7908H26.7908V29.0234H24.5582V26.7908ZM29.0234 26.7908H31.2559V29.0234H29.0234V26.7908ZM31.2559 26.7908H33.4885V29.0234H31.2559V26.7908ZM35.721 26.7908H37.9536V29.0234H35.721V26.7908ZM37.9536 26.7908H40.1862V29.0234H37.9536V26.7908ZM53.5815 26.7908H55.8141V29.0234H53.5815V26.7908ZM58.0466 26.7908H60.2792V29.0234H58.0466V26.7908ZM60.2792 26.7908H62.5117V29.0234H60.2792V26.7908ZM64.7443 26.7908H66.9769V29.0234H64.7443V26.7908ZM78.1396 26.7908H80.3722V29.0234H78.1396V26.7908ZM80.3722 26.7908H82.6048V29.0234H80.3722V26.7908ZM82.6048 26.7908H84.8373V29.0234H82.6048V26.7908ZM84.8373 26.7908H87.0699V29.0234H84.8373V26.7908ZM2.23267 29.0234H4.46522V31.2559H2.23267V29.0234ZM4.46522 29.0234H6.69778V31.2559H4.46522V29.0234ZM15.628 29.0234H17.8606V31.2559H15.628V29.0234ZM22.3257 29.0234H24.5582V31.2559H22.3257V29.0234ZM24.5582 29.0234H26.7908V31.2559H24.5582V29.0234ZM33.4885 29.0234H35.721V31.2559H33.4885V29.0234ZM37.9536 29.0234H40.1862V31.2559H37.9536V29.0234ZM42.4187 29.0234H44.6513V31.2559H42.4187V29.0234ZM44.6513 29.0234H46.8838V31.2559H44.6513V29.0234ZM49.1164 29.0234H51.3489V31.2559H49.1164V29.0234ZM53.5815 29.0234H55.8141V31.2559H53.5815V29.0234ZM73.6745 29.0234H75.9071V31.2559H73.6745V29.0234ZM78.1396 29.0234H80.3722V31.2559H78.1396V29.0234ZM82.6048 29.0234H84.8373V31.2559H82.6048V29.0234ZM84.8373 29.0234H87.0699V31.2559H84.8373V29.0234ZM87.0699 29.0234H89.3024V31.2559H87.0699V29.0234ZM4.46522 31.2559H6.69778V33.4885H4.46522V31.2559ZM6.69778 31.2559H8.93034V33.4885H6.69778V31.2559ZM8.93034 31.2559H11.1629V33.4885H8.93034V31.2559ZM13.3955 31.2559H15.628V33.4885H13.3955V31.2559ZM20.0931 31.2559H22.3257V33.4885H20.0931V31.2559ZM29.0234 31.2559H31.2559V33.4885H29.0234V31.2559ZM31.2559 31.2559H33.4885V33.4885H31.2559V31.2559ZM35.721 31.2559H37.9536V33.4885H35.721V31.2559ZM40.1862 31.2559H42.4187V33.4885H40.1862V31.2559ZM42.4187 31.2559H44.6513V33.4885H42.4187V31.2559ZM49.1164 31.2559H51.3489V33.4885H49.1164V31.2559ZM51.3489 31.2559H53.5815V33.4885H51.3489V31.2559ZM60.2792 31.2559H62.5117V33.4885H60.2792V31.2559ZM62.5117 31.2559H64.7443V33.4885H62.5117V31.2559ZM66.9769 31.2559H69.2094V33.4885H66.9769V31.2559ZM69.2094 31.2559H71.442V33.4885H69.2094V31.2559ZM73.6745 31.2559H75.9071V33.4885H73.6745V31.2559ZM91.535 31.2559H93.7675V33.4885H91.535V31.2559ZM2.23267 33.4885H4.46522V35.721H2.23267V33.4885ZM4.46522 33.4885H6.69778V35.721H4.46522V33.4885ZM11.1629 33.4885H13.3955V35.721H11.1629V33.4885ZM15.628 33.4885H17.8606V35.721H15.628V33.4885ZM22.3257 33.4885H24.5582V35.721H22.3257V33.4885ZM24.5582 33.4885H26.7908V35.721H24.5582V33.4885ZM31.2559 33.4885H33.4885V35.721H31.2559V33.4885ZM35.721 33.4885H37.9536V35.721H35.721V33.4885ZM37.9536 33.4885H40.1862V35.721H37.9536V33.4885ZM40.1862 33.4885H42.4187V35.721H40.1862V33.4885ZM53.5815 33.4885H55.8141V35.721H53.5815V33.4885ZM55.8141 33.4885H58.0466V35.721H55.8141V33.4885ZM58.0466 33.4885H60.2792V35.721H58.0466V33.4885ZM60.2792 33.4885H62.5117V35.721H60.2792V33.4885ZM66.9769 33.4885H69.2094V35.721H66.9769V33.4885ZM80.3722 33.4885H82.6048V35.721H80.3722V33.4885ZM87.0699 33.4885H89.3024V35.721H87.0699V33.4885ZM2.23267 35.721H4.46522V37.9536H2.23267V35.721ZM8.93034 35.721H11.1629V37.9536H8.93034V35.721ZM11.1629 35.721H13.3955V37.9536H11.1629V35.721ZM29.0234 35.721H31.2559V37.9536H29.0234V35.721ZM33.4885 35.721H35.721V37.9536H33.4885V35.721ZM35.721 35.721H37.9536V37.9536H35.721V35.721ZM42.4187 35.721H44.6513V37.9536H42.4187V35.721ZM46.8838 35.721H49.1164V37.9536H46.8838V35.721ZM49.1164 35.721H51.3489V37.9536H49.1164V35.721ZM51.3489 35.721H53.5815V37.9536H51.3489V35.721ZM62.5117 35.721H64.7443V37.9536H62.5117V35.721ZM64.7443 35.721H66.9769V37.9536H64.7443V35.721ZM71.442 35.721H73.6745V37.9536H71.442V35.721ZM78.1396 35.721H80.3722V37.9536H78.1396V35.721ZM84.8373 35.721H87.0699V37.9536H84.8373V35.721ZM89.3024 35.721H91.535V37.9536H89.3024V35.721ZM4.46522 37.9536H6.69778V40.1862H4.46522V37.9536ZM6.69778 37.9536H8.93034V40.1862H6.69778V37.9536ZM8.93034 37.9536H11.1629V40.1862H8.93034V37.9536ZM11.1629 37.9536H13.3955V40.1862H11.1629V37.9536ZM15.628 37.9536H17.8606V40.1862H15.628V37.9536ZM22.3257 37.9536H24.5582V40.1862H22.3257V37.9536ZM33.4885 37.9536H35.721V40.1862H33.4885V37.9536ZM35.721 37.9536H37.9536V40.1862H35.721V37.9536ZM37.9536 37.9536H40.1862V40.1862H37.9536V37.9536ZM46.8838 37.9536H49.1164V40.1862H46.8838V37.9536ZM49.1164 37.9536H51.3489V40.1862H49.1164V37.9536ZM51.3489 37.9536H53.5815V40.1862H51.3489V37.9536ZM53.5815 37.9536H55.8141V40.1862H53.5815V37.9536ZM55.8141 37.9536H58.0466V40.1862H55.8141V37.9536ZM58.0466 37.9536H60.2792V40.1862H58.0466V37.9536ZM60.2792 37.9536H62.5117V40.1862H60.2792V37.9536ZM66.9769 37.9536H69.2094V40.1862H66.9769V37.9536ZM71.442 37.9536H73.6745V40.1862H71.442V37.9536ZM75.9071 37.9536H78.1396V40.1862H75.9071V37.9536ZM80.3722 37.9536H82.6048V40.1862H80.3722V37.9536ZM2.23267 40.1862H4.46522V42.4187H2.23267V40.1862ZM4.46522 40.1862H6.69778V42.4187H4.46522V40.1862ZM11.1629 40.1862H13.3955V42.4187H11.1629V40.1862ZM17.8606 40.1862H20.0931V42.4187H17.8606V40.1862ZM22.3257 40.1862H24.5582V42.4187H22.3257V40.1862ZM33.4885 40.1862H35.721V42.4187H33.4885V40.1862ZM35.721 40.1862H37.9536V42.4187H35.721V40.1862ZM42.4187 40.1862H44.6513V42.4187H42.4187V40.1862ZM46.8838 40.1862H49.1164V42.4187H46.8838V40.1862ZM49.1164 40.1862H51.3489V42.4187H49.1164V40.1862ZM51.3489 40.1862H53.5815V42.4187H51.3489V40.1862ZM58.0466 40.1862H60.2792V42.4187H58.0466V40.1862ZM60.2792 40.1862H62.5117V42.4187H60.2792V40.1862ZM66.9769 40.1862H69.2094V42.4187H66.9769V40.1862ZM69.2094 40.1862H71.442V42.4187H69.2094V40.1862ZM71.442 40.1862H73.6745V42.4187H71.442V40.1862ZM73.6745 40.1862H75.9071V42.4187H73.6745V40.1862ZM75.9071 40.1862H78.1396V42.4187H75.9071V40.1862ZM78.1396 40.1862H80.3722V42.4187H78.1396V40.1862ZM80.3722 40.1862H82.6048V42.4187H80.3722V40.1862ZM82.6048 40.1862H84.8373V42.4187H82.6048V40.1862ZM4.46522 42.4187H6.69778V44.6513H4.46522V42.4187ZM6.69778 42.4187H8.93034V44.6513H6.69778V42.4187ZM11.1629 42.4187H13.3955V44.6513H11.1629V42.4187ZM15.628 42.4187H17.8606V44.6513H15.628V42.4187ZM20.0931 42.4187H22.3257V44.6513H20.0931V42.4187ZM22.3257 42.4187H24.5582V44.6513H22.3257V42.4187ZM26.7908 42.4187H29.0234V44.6513H26.7908V42.4187ZM37.9536 42.4187H40.1862V44.6513H37.9536V42.4187ZM42.4187 42.4187H44.6513V44.6513H42.4187V42.4187ZM49.1164 42.4187H51.3489V44.6513H49.1164V42.4187ZM51.3489 42.4187H53.5815V44.6513H51.3489V42.4187ZM60.2792 42.4187H62.5117V44.6513H60.2792V42.4187ZM62.5117 42.4187H64.7443V44.6513H62.5117V42.4187ZM64.7443 42.4187H66.9769V44.6513H64.7443V42.4187ZM73.6745 42.4187H75.9071V44.6513H73.6745V42.4187ZM75.9071 42.4187H78.1396V44.6513H75.9071V42.4187ZM78.1396 42.4187H80.3722V44.6513H78.1396V42.4187ZM80.3722 42.4187H82.6048V44.6513H80.3722V42.4187ZM2.23267 44.6513H4.46522V46.8838H2.23267V44.6513ZM4.46522 44.6513H6.69778V46.8838H4.46522V44.6513ZM6.69778 44.6513H8.93034V46.8838H6.69778V44.6513ZM11.1629 44.6513H13.3955V46.8838H11.1629V44.6513ZM13.3955 44.6513H15.628V46.8838H13.3955V44.6513ZM17.8606 44.6513H20.0931V46.8838H17.8606V44.6513ZM20.0931 44.6513H22.3257V46.8838H20.0931V44.6513ZM24.5582 44.6513H26.7908V46.8838H24.5582V44.6513ZM26.7908 44.6513H29.0234V46.8838H26.7908V44.6513ZM29.0234 44.6513H31.2559V46.8838H29.0234V44.6513ZM33.4885 44.6513H35.721V46.8838H33.4885V44.6513ZM42.4187 44.6513H44.6513V46.8838H42.4187V44.6513ZM46.8838 44.6513H49.1164V46.8838H46.8838V44.6513ZM49.1164 44.6513H51.3489V46.8838H49.1164V44.6513ZM53.5815 44.6513H55.8141V46.8838H53.5815V44.6513ZM60.2792 44.6513H62.5117V46.8838H60.2792V44.6513ZM62.5117 44.6513H64.7443V46.8838H62.5117V44.6513ZM64.7443 44.6513H66.9769V46.8838H64.7443V44.6513ZM66.9769 44.6513H69.2094V46.8838H66.9769V44.6513ZM73.6745 44.6513H75.9071V46.8838H73.6745V44.6513ZM78.1396 44.6513H80.3722V46.8838H78.1396V44.6513ZM80.3722 44.6513H82.6048V46.8838H80.3722V44.6513ZM82.6048 44.6513H84.8373V46.8838H82.6048V44.6513ZM84.8373 44.6513H87.0699V46.8838H84.8373V44.6513ZM91.535 44.6513H93.7675V46.8838H91.535V44.6513ZM2.23267 46.8838H4.46522V49.1164H2.23267V46.8838ZM4.46522 46.8838H6.69778V49.1164H4.46522V46.8838ZM6.69778 46.8838H8.93034V49.1164H6.69778V46.8838ZM8.93034 46.8838H11.1629V49.1164H8.93034V46.8838ZM11.1629 46.8838H13.3955V49.1164H11.1629V46.8838ZM13.3955 46.8838H15.628V49.1164H13.3955V46.8838ZM15.628 46.8838H17.8606V49.1164H15.628V46.8838ZM17.8606 46.8838H20.0931V49.1164H17.8606V46.8838ZM26.7908 46.8838H29.0234V49.1164H26.7908V46.8838ZM29.0234 46.8838H31.2559V49.1164H29.0234V46.8838ZM42.4187 46.8838H44.6513V49.1164H42.4187V46.8838ZM46.8838 46.8838H49.1164V49.1164H46.8838V46.8838ZM49.1164 46.8838H51.3489V49.1164H49.1164V46.8838ZM51.3489 46.8838H53.5815V49.1164H51.3489V46.8838ZM55.8141 46.8838H58.0466V49.1164H55.8141V46.8838ZM62.5117 46.8838H64.7443V49.1164H62.5117V46.8838ZM69.2094 46.8838H71.442V49.1164H69.2094V46.8838ZM71.442 46.8838H73.6745V49.1164H71.442V46.8838ZM73.6745 46.8838H75.9071V49.1164H73.6745V46.8838ZM75.9071 46.8838H78.1396V49.1164H75.9071V46.8838ZM78.1396 46.8838H80.3722V49.1164H78.1396V46.8838ZM80.3722 46.8838H82.6048V49.1164H80.3722V46.8838ZM82.6048 46.8838H84.8373V49.1164H82.6048V46.8838ZM84.8373 46.8838H87.0699V49.1164H84.8373V46.8838ZM87.0699 46.8838H89.3024V49.1164H87.0699V46.8838ZM89.3024 46.8838H91.535V49.1164H89.3024V46.8838ZM91.535 46.8838H93.7675V49.1164H91.535V46.8838ZM6.69778 49.1164H8.93034V51.3489H6.69778V49.1164ZM8.93034 49.1164H11.1629V51.3489H8.93034V49.1164ZM22.3257 49.1164H24.5582V51.3489H22.3257V49.1164ZM33.4885 49.1164H35.721V51.3489H33.4885V49.1164ZM35.721 49.1164H37.9536V51.3489H35.721V49.1164ZM37.9536 49.1164H40.1862V51.3489H37.9536V49.1164ZM40.1862 49.1164H42.4187V51.3489H40.1862V49.1164ZM42.4187 49.1164H44.6513V51.3489H42.4187V49.1164ZM51.3489 49.1164H53.5815V51.3489H51.3489V49.1164ZM58.0466 49.1164H60.2792V51.3489H58.0466V49.1164ZM62.5117 49.1164H64.7443V51.3489H62.5117V49.1164ZM66.9769 49.1164H69.2094V51.3489H66.9769V49.1164ZM69.2094 49.1164H71.442V51.3489H69.2094V49.1164ZM73.6745 49.1164H75.9071V51.3489H73.6745V49.1164ZM80.3722 49.1164H82.6048V51.3489H80.3722V49.1164ZM82.6048 49.1164H84.8373V51.3489H82.6048V49.1164ZM87.0699 49.1164H89.3024V51.3489H87.0699V49.1164ZM91.535 49.1164H93.7675V51.3489H91.535V49.1164ZM2.23267 51.3489H4.46522V53.5815H2.23267V51.3489ZM6.69778 51.3489H8.93034V53.5815H6.69778V51.3489ZM15.628 51.3489H17.8606V53.5815H15.628V51.3489ZM22.3257 51.3489H24.5582V53.5815H22.3257V51.3489ZM26.7908 51.3489H29.0234V53.5815H26.7908V51.3489ZM29.0234 51.3489H31.2559V53.5815H29.0234V51.3489ZM33.4885 51.3489H35.721V53.5815H33.4885V51.3489ZM40.1862 51.3489H42.4187V53.5815H40.1862V51.3489ZM42.4187 51.3489H44.6513V53.5815H42.4187V51.3489ZM44.6513 51.3489H46.8838V53.5815H44.6513V51.3489ZM46.8838 51.3489H49.1164V53.5815H46.8838V51.3489ZM49.1164 51.3489H51.3489V53.5815H49.1164V51.3489ZM53.5815 51.3489H55.8141V53.5815H53.5815V51.3489ZM55.8141 51.3489H58.0466V53.5815H55.8141V51.3489ZM73.6745 51.3489H75.9071V53.5815H73.6745V51.3489ZM78.1396 51.3489H80.3722V53.5815H78.1396V51.3489ZM84.8373 51.3489H87.0699V53.5815H84.8373V51.3489ZM87.0699 51.3489H89.3024V53.5815H87.0699V51.3489ZM4.46522 53.5815H6.69778V55.8141H4.46522V53.5815ZM13.3955 53.5815H15.628V55.8141H13.3955V53.5815ZM17.8606 53.5815H20.0931V55.8141H17.8606V53.5815ZM20.0931 53.5815H22.3257V55.8141H20.0931V53.5815ZM22.3257 53.5815H24.5582V55.8141H22.3257V53.5815ZM26.7908 53.5815H29.0234V55.8141H26.7908V53.5815ZM37.9536 53.5815H40.1862V55.8141H37.9536V53.5815ZM40.1862 53.5815H42.4187V55.8141H40.1862V53.5815ZM44.6513 53.5815H46.8838V55.8141H44.6513V53.5815ZM49.1164 53.5815H51.3489V55.8141H49.1164V53.5815ZM51.3489 53.5815H53.5815V55.8141H51.3489V53.5815ZM62.5117 53.5815H64.7443V55.8141H62.5117V53.5815ZM64.7443 53.5815H66.9769V55.8141H64.7443V53.5815ZM71.442 53.5815H73.6745V55.8141H71.442V53.5815ZM75.9071 53.5815H78.1396V55.8141H75.9071V53.5815ZM78.1396 53.5815H80.3722V55.8141H78.1396V53.5815ZM84.8373 53.5815H87.0699V55.8141H84.8373V53.5815ZM89.3024 53.5815H91.535V55.8141H89.3024V53.5815ZM4.46522 55.8141H6.69778V58.0466H4.46522V55.8141ZM6.69778 55.8141H8.93034V58.0466H6.69778V55.8141ZM11.1629 55.8141H13.3955V58.0466H11.1629V55.8141ZM13.3955 55.8141H15.628V58.0466H13.3955V55.8141ZM15.628 55.8141H17.8606V58.0466H15.628V55.8141ZM20.0931 55.8141H22.3257V58.0466H20.0931V55.8141ZM26.7908 55.8141H29.0234V58.0466H26.7908V55.8141ZM37.9536 55.8141H40.1862V58.0466H37.9536V55.8141ZM46.8838 55.8141H49.1164V58.0466H46.8838V55.8141ZM49.1164 55.8141H51.3489V58.0466H49.1164V55.8141ZM53.5815 55.8141H55.8141V58.0466H53.5815V55.8141ZM58.0466 55.8141H60.2792V58.0466H58.0466V55.8141ZM60.2792 55.8141H62.5117V58.0466H60.2792V55.8141ZM66.9769 55.8141H69.2094V58.0466H66.9769V55.8141ZM69.2094 55.8141H71.442V58.0466H69.2094V55.8141ZM71.442 55.8141H73.6745V58.0466H71.442V55.8141ZM80.3722 55.8141H82.6048V58.0466H80.3722V55.8141ZM89.3024 55.8141H91.535V58.0466H89.3024V55.8141ZM91.535 55.8141H93.7675V58.0466H91.535V55.8141ZM4.46522 58.0466H6.69778V60.2792H4.46522V58.0466ZM6.69778 58.0466H8.93034V60.2792H6.69778V58.0466ZM11.1629 58.0466H13.3955V60.2792H11.1629V58.0466ZM17.8606 58.0466H20.0931V60.2792H17.8606V58.0466ZM20.0931 58.0466H22.3257V60.2792H20.0931V58.0466ZM22.3257 58.0466H24.5582V60.2792H22.3257V58.0466ZM24.5582 58.0466H26.7908V60.2792H24.5582V58.0466ZM29.0234 58.0466H31.2559V60.2792H29.0234V58.0466ZM31.2559 58.0466H33.4885V60.2792H31.2559V58.0466ZM33.4885 58.0466H35.721V60.2792H33.4885V58.0466ZM35.721 58.0466H37.9536V60.2792H35.721V58.0466ZM37.9536 58.0466H40.1862V60.2792H37.9536V58.0466ZM40.1862 58.0466H42.4187V60.2792H40.1862V58.0466ZM46.8838 58.0466H49.1164V60.2792H46.8838V58.0466ZM49.1164 58.0466H51.3489V60.2792H49.1164V58.0466ZM51.3489 58.0466H53.5815V60.2792H51.3489V58.0466ZM53.5815 58.0466H55.8141V60.2792H53.5815V58.0466ZM58.0466 58.0466H60.2792V60.2792H58.0466V58.0466ZM64.7443 58.0466H66.9769V60.2792H64.7443V58.0466ZM66.9769 58.0466H69.2094V60.2792H66.9769V58.0466ZM69.2094 58.0466H71.442V60.2792H69.2094V58.0466ZM71.442 58.0466H73.6745V60.2792H71.442V58.0466ZM73.6745 58.0466H75.9071V60.2792H73.6745V58.0466ZM75.9071 58.0466H78.1396V60.2792H75.9071V58.0466ZM78.1396 58.0466H80.3722V60.2792H78.1396V58.0466ZM80.3722 58.0466H82.6048V60.2792H80.3722V58.0466ZM82.6048 58.0466H84.8373V60.2792H82.6048V58.0466ZM89.3024 58.0466H91.535V60.2792H89.3024V58.0466ZM2.23267 60.2792H4.46522V62.5117H2.23267V60.2792ZM8.93034 60.2792H11.1629V62.5117H8.93034V60.2792ZM11.1629 60.2792H13.3955V62.5117H11.1629V60.2792ZM13.3955 60.2792H15.628V62.5117H13.3955V60.2792ZM15.628 60.2792H17.8606V62.5117H15.628V60.2792ZM17.8606 60.2792H20.0931V62.5117H17.8606V60.2792ZM22.3257 60.2792H24.5582V62.5117H22.3257V60.2792ZM24.5582 60.2792H26.7908V62.5117H24.5582V60.2792ZM26.7908 60.2792H29.0234V62.5117H26.7908V60.2792ZM31.2559 60.2792H33.4885V62.5117H31.2559V60.2792ZM33.4885 60.2792H35.721V62.5117H33.4885V60.2792ZM35.721 60.2792H37.9536V62.5117H35.721V60.2792ZM37.9536 60.2792H40.1862V62.5117H37.9536V60.2792ZM40.1862 60.2792H42.4187V62.5117H40.1862V60.2792ZM44.6513 60.2792H46.8838V62.5117H44.6513V60.2792ZM49.1164 60.2792H51.3489V62.5117H49.1164V60.2792ZM51.3489 60.2792H53.5815V62.5117H51.3489V60.2792ZM53.5815 60.2792H55.8141V62.5117H53.5815V60.2792ZM58.0466 60.2792H60.2792V62.5117H58.0466V60.2792ZM60.2792 60.2792H62.5117V62.5117H60.2792V60.2792ZM62.5117 60.2792H64.7443V62.5117H62.5117V60.2792ZM73.6745 60.2792H75.9071V62.5117H73.6745V60.2792ZM75.9071 60.2792H78.1396V62.5117H75.9071V60.2792ZM78.1396 60.2792H80.3722V62.5117H78.1396V60.2792ZM80.3722 60.2792H82.6048V62.5117H80.3722V60.2792ZM84.8373 60.2792H87.0699V62.5117H84.8373V60.2792ZM87.0699 60.2792H89.3024V62.5117H87.0699V60.2792ZM2.23267 62.5117H4.46522V64.7443H2.23267V62.5117ZM4.46522 62.5117H6.69778V64.7443H4.46522V62.5117ZM6.69778 62.5117H8.93034V64.7443H6.69778V62.5117ZM11.1629 62.5117H13.3955V64.7443H11.1629V62.5117ZM29.0234 62.5117H31.2559V64.7443H29.0234V62.5117ZM31.2559 62.5117H33.4885V64.7443H31.2559V62.5117ZM35.721 62.5117H37.9536V64.7443H35.721V62.5117ZM40.1862 62.5117H42.4187V64.7443H40.1862V62.5117ZM42.4187 62.5117H44.6513V64.7443H42.4187V62.5117ZM44.6513 62.5117H46.8838V64.7443H44.6513V62.5117ZM55.8141 62.5117H58.0466V64.7443H55.8141V62.5117ZM60.2792 62.5117H62.5117V64.7443H60.2792V62.5117ZM62.5117 62.5117H64.7443V64.7443H62.5117V62.5117ZM64.7443 62.5117H66.9769V64.7443H64.7443V62.5117ZM69.2094 62.5117H71.442V64.7443H69.2094V62.5117ZM71.442 62.5117H73.6745V64.7443H71.442V62.5117ZM73.6745 62.5117H75.9071V64.7443H73.6745V62.5117ZM78.1396 62.5117H80.3722V64.7443H78.1396V62.5117ZM80.3722 62.5117H82.6048V64.7443H80.3722V62.5117ZM91.535 62.5117H93.7675V64.7443H91.535V62.5117ZM2.23267 64.7443H4.46522V66.9769H2.23267V64.7443ZM6.69778 64.7443H8.93034V66.9769H6.69778V64.7443ZM8.93034 64.7443H11.1629V66.9769H8.93034V64.7443ZM11.1629 64.7443H13.3955V66.9769H11.1629V64.7443ZM15.628 64.7443H17.8606V66.9769H15.628V64.7443ZM20.0931 64.7443H22.3257V66.9769H20.0931V64.7443ZM22.3257 64.7443H24.5582V66.9769H22.3257V64.7443ZM26.7908 64.7443H29.0234V66.9769H26.7908V64.7443ZM33.4885 64.7443H35.721V66.9769H33.4885V64.7443ZM37.9536 64.7443H40.1862V66.9769H37.9536V64.7443ZM46.8838 64.7443H49.1164V66.9769H46.8838V64.7443ZM49.1164 64.7443H51.3489V66.9769H49.1164V64.7443ZM60.2792 64.7443H62.5117V66.9769H60.2792V64.7443ZM78.1396 64.7443H80.3722V66.9769H78.1396V64.7443ZM80.3722 64.7443H82.6048V66.9769H80.3722V64.7443ZM82.6048 64.7443H84.8373V66.9769H82.6048V64.7443ZM84.8373 64.7443H87.0699V66.9769H84.8373V64.7443ZM87.0699 64.7443H89.3024V66.9769H87.0699V64.7443ZM89.3024 64.7443H91.535V66.9769H89.3024V64.7443ZM91.535 64.7443H93.7675V66.9769H91.535V64.7443ZM2.23267 66.9769H4.46522V69.2094H2.23267V66.9769ZM4.46522 66.9769H6.69778V69.2094H4.46522V66.9769ZM6.69778 66.9769H8.93034V69.2094H6.69778V66.9769ZM11.1629 66.9769H13.3955V69.2094H11.1629V66.9769ZM17.8606 66.9769H20.0931V69.2094H17.8606V66.9769ZM22.3257 66.9769H24.5582V69.2094H22.3257V66.9769ZM24.5582 66.9769H26.7908V69.2094H24.5582V66.9769ZM29.0234 66.9769H31.2559V69.2094H29.0234V66.9769ZM31.2559 66.9769H33.4885V69.2094H31.2559V66.9769ZM35.721 66.9769H37.9536V69.2094H35.721V66.9769ZM42.4187 66.9769H44.6513V69.2094H42.4187V66.9769ZM49.1164 66.9769H51.3489V69.2094H49.1164V66.9769ZM51.3489 66.9769H53.5815V69.2094H51.3489V66.9769ZM55.8141 66.9769H58.0466V69.2094H55.8141V66.9769ZM62.5117 66.9769H64.7443V69.2094H62.5117V66.9769ZM64.7443 66.9769H66.9769V69.2094H64.7443V66.9769ZM66.9769 66.9769H69.2094V69.2094H66.9769V66.9769ZM69.2094 66.9769H71.442V69.2094H69.2094V66.9769ZM73.6745 66.9769H75.9071V69.2094H73.6745V66.9769ZM82.6048 66.9769H84.8373V69.2094H82.6048V66.9769ZM87.0699 66.9769H89.3024V69.2094H87.0699V66.9769ZM89.3024 66.9769H91.535V69.2094H89.3024V66.9769ZM91.535 66.9769H93.7675V69.2094H91.535V66.9769ZM2.23267 69.2094H4.46522V71.442H2.23267V69.2094ZM6.69778 69.2094H8.93034V71.442H6.69778V69.2094ZM8.93034 69.2094H11.1629V71.442H8.93034V69.2094ZM15.628 69.2094H17.8606V71.442H15.628V69.2094ZM22.3257 69.2094H24.5582V71.442H22.3257V69.2094ZM31.2559 69.2094H33.4885V71.442H31.2559V69.2094ZM35.721 69.2094H37.9536V71.442H35.721V69.2094ZM37.9536 69.2094H40.1862V71.442H37.9536V69.2094ZM46.8838 69.2094H49.1164V71.442H46.8838V69.2094ZM49.1164 69.2094H51.3489V71.442H49.1164V69.2094ZM53.5815 69.2094H55.8141V71.442H53.5815V69.2094ZM55.8141 69.2094H58.0466V71.442H55.8141V69.2094ZM60.2792 69.2094H62.5117V71.442H60.2792V69.2094ZM66.9769 69.2094H69.2094V71.442H66.9769V69.2094ZM73.6745 69.2094H75.9071V71.442H73.6745V69.2094ZM82.6048 69.2094H84.8373V71.442H82.6048V69.2094ZM84.8373 69.2094H87.0699V71.442H84.8373V69.2094ZM2.23267 71.442H4.46522V73.6745H2.23267V71.442ZM8.93034 71.442H11.1629V73.6745H8.93034V71.442ZM17.8606 71.442H20.0931V73.6745H17.8606V71.442ZM22.3257 71.442H24.5582V73.6745H22.3257V71.442ZM24.5582 71.442H26.7908V73.6745H24.5582V71.442ZM29.0234 71.442H31.2559V73.6745H29.0234V71.442ZM33.4885 71.442H35.721V73.6745H33.4885V71.442ZM35.721 71.442H37.9536V73.6745H35.721V71.442ZM44.6513 71.442H46.8838V73.6745H44.6513V71.442ZM51.3489 71.442H53.5815V73.6745H51.3489V71.442ZM53.5815 71.442H55.8141V73.6745H53.5815V71.442ZM55.8141 71.442H58.0466V73.6745H55.8141V71.442ZM62.5117 71.442H64.7443V73.6745H62.5117V71.442ZM64.7443 71.442H66.9769V73.6745H64.7443V71.442ZM75.9071 71.442H78.1396V73.6745H75.9071V71.442ZM78.1396 71.442H80.3722V73.6745H78.1396V71.442ZM80.3722 71.442H82.6048V73.6745H80.3722V71.442ZM84.8373 71.442H87.0699V73.6745H84.8373V71.442ZM2.23267 73.6745H4.46522V75.9071H2.23267V73.6745ZM8.93034 73.6745H11.1629V75.9071H8.93034V73.6745ZM11.1629 73.6745H13.3955V75.9071H11.1629V73.6745ZM15.628 73.6745H17.8606V75.9071H15.628V73.6745ZM35.721 73.6745H37.9536V75.9071H35.721V73.6745ZM37.9536 73.6745H40.1862V75.9071H37.9536V73.6745ZM42.4187 73.6745H44.6513V75.9071H42.4187V73.6745ZM44.6513 73.6745H46.8838V75.9071H44.6513V73.6745ZM46.8838 73.6745H49.1164V75.9071H46.8838V73.6745ZM49.1164 73.6745H51.3489V75.9071H49.1164V73.6745ZM51.3489 73.6745H53.5815V75.9071H51.3489V73.6745ZM58.0466 73.6745H60.2792V75.9071H58.0466V73.6745ZM66.9769 73.6745H69.2094V75.9071H66.9769V73.6745ZM71.442 73.6745H73.6745V75.9071H71.442V73.6745ZM73.6745 73.6745H75.9071V75.9071H73.6745V73.6745ZM75.9071 73.6745H78.1396V75.9071H75.9071V73.6745ZM78.1396 73.6745H80.3722V75.9071H78.1396V73.6745ZM80.3722 73.6745H82.6048V75.9071H80.3722V73.6745ZM82.6048 73.6745H84.8373V75.9071H82.6048V73.6745ZM89.3024 73.6745H91.535V75.9071H89.3024V73.6745ZM20.0931 75.9071H22.3257V78.1396H20.0931V75.9071ZM22.3257 75.9071H24.5582V78.1396H22.3257V75.9071ZM24.5582 75.9071H26.7908V78.1396H24.5582V75.9071ZM29.0234 75.9071H31.2559V78.1396H29.0234V75.9071ZM33.4885 75.9071H35.721V78.1396H33.4885V75.9071ZM35.721 75.9071H37.9536V78.1396H35.721V75.9071ZM46.8838 75.9071H49.1164V78.1396H46.8838V75.9071ZM51.3489 75.9071H53.5815V78.1396H51.3489V75.9071ZM53.5815 75.9071H55.8141V78.1396H53.5815V75.9071ZM55.8141 75.9071H58.0466V78.1396H55.8141V75.9071ZM58.0466 75.9071H60.2792V78.1396H58.0466V75.9071ZM60.2792 75.9071H62.5117V78.1396H60.2792V75.9071ZM64.7443 75.9071H66.9769V78.1396H64.7443V75.9071ZM66.9769 75.9071H69.2094V78.1396H66.9769V75.9071ZM69.2094 75.9071H71.442V78.1396H69.2094V75.9071ZM73.6745 75.9071H75.9071V78.1396H73.6745V75.9071ZM82.6048 75.9071H84.8373V78.1396H82.6048V75.9071ZM87.0699 75.9071H89.3024V78.1396H87.0699V75.9071ZM2.23267 78.1396H4.46522V80.3722H2.23267V78.1396ZM4.46522 78.1396H6.69778V80.3722H4.46522V78.1396ZM6.69778 78.1396H8.93034V80.3722H6.69778V78.1396ZM8.93034 78.1396H11.1629V80.3722H8.93034V78.1396ZM11.1629 78.1396H13.3955V80.3722H11.1629V78.1396ZM13.3955 78.1396H15.628V80.3722H13.3955V78.1396ZM15.628 78.1396H17.8606V80.3722H15.628V78.1396ZM20.0931 78.1396H22.3257V80.3722H20.0931V78.1396ZM24.5582 78.1396H26.7908V80.3722H24.5582V78.1396ZM35.721 78.1396H37.9536V80.3722H35.721V78.1396ZM37.9536 78.1396H40.1862V80.3722H37.9536V78.1396ZM42.4187 78.1396H44.6513V80.3722H42.4187V78.1396ZM49.1164 78.1396H51.3489V80.3722H49.1164V78.1396ZM55.8141 78.1396H58.0466V80.3722H55.8141V78.1396ZM60.2792 78.1396H62.5117V80.3722H60.2792V78.1396ZM62.5117 78.1396H64.7443V80.3722H62.5117V78.1396ZM64.7443 78.1396H66.9769V80.3722H64.7443V78.1396ZM66.9769 78.1396H69.2094V80.3722H66.9769V78.1396ZM69.2094 78.1396H71.442V80.3722H69.2094V78.1396ZM71.442 78.1396H73.6745V80.3722H71.442V78.1396ZM73.6745 78.1396H75.9071V80.3722H73.6745V78.1396ZM78.1396 78.1396H80.3722V80.3722H78.1396V78.1396ZM82.6048 78.1396H84.8373V80.3722H82.6048V78.1396ZM87.0699 78.1396H89.3024V80.3722H87.0699V78.1396ZM89.3024 78.1396H91.535V80.3722H89.3024V78.1396ZM91.535 78.1396H93.7675V80.3722H91.535V78.1396ZM2.23267 80.3722H4.46522V82.6048H2.23267V80.3722ZM15.628 80.3722H17.8606V82.6048H15.628V80.3722ZM22.3257 80.3722H24.5582V82.6048H22.3257V80.3722ZM33.4885 80.3722H35.721V82.6048H33.4885V80.3722ZM55.8141 80.3722H58.0466V82.6048H55.8141V80.3722ZM58.0466 80.3722H60.2792V82.6048H58.0466V80.3722ZM60.2792 80.3722H62.5117V82.6048H60.2792V80.3722ZM62.5117 80.3722H64.7443V82.6048H62.5117V80.3722ZM71.442 80.3722H73.6745V82.6048H71.442V80.3722ZM73.6745 80.3722H75.9071V82.6048H73.6745V80.3722ZM82.6048 80.3722H84.8373V82.6048H82.6048V80.3722ZM89.3024 80.3722H91.535V82.6048H89.3024V80.3722ZM2.23267 82.6048H4.46522V84.8373H2.23267V82.6048ZM6.69778 82.6048H8.93034V84.8373H6.69778V82.6048ZM8.93034 82.6048H11.1629V84.8373H8.93034V82.6048ZM11.1629 82.6048H13.3955V84.8373H11.1629V82.6048ZM15.628 82.6048H17.8606V84.8373H15.628V82.6048ZM20.0931 82.6048H22.3257V84.8373H20.0931V82.6048ZM22.3257 82.6048H24.5582V84.8373H22.3257V82.6048ZM24.5582 82.6048H26.7908V84.8373H24.5582V82.6048ZM26.7908 82.6048H29.0234V84.8373H26.7908V82.6048ZM29.0234 82.6048H31.2559V84.8373H29.0234V82.6048ZM42.4187 82.6048H44.6513V84.8373H42.4187V82.6048ZM46.8838 82.6048H49.1164V84.8373H46.8838V82.6048ZM49.1164 82.6048H51.3489V84.8373H49.1164V82.6048ZM51.3489 82.6048H53.5815V84.8373H51.3489V82.6048ZM60.2792 82.6048H62.5117V84.8373H60.2792V82.6048ZM73.6745 82.6048H75.9071V84.8373H73.6745V82.6048ZM75.9071 82.6048H78.1396V84.8373H75.9071V82.6048ZM78.1396 82.6048H80.3722V84.8373H78.1396V82.6048ZM80.3722 82.6048H82.6048V84.8373H80.3722V82.6048ZM82.6048 82.6048H84.8373V84.8373H82.6048V82.6048ZM87.0699 82.6048H89.3024V84.8373H87.0699V82.6048ZM91.535 82.6048H93.7675V84.8373H91.535V82.6048ZM2.23267 84.8373H4.46522V87.0699H2.23267V84.8373ZM6.69778 84.8373H8.93034V87.0699H6.69778V84.8373ZM8.93034 84.8373H11.1629V87.0699H8.93034V84.8373ZM11.1629 84.8373H13.3955V87.0699H11.1629V84.8373ZM15.628 84.8373H17.8606V87.0699H15.628V84.8373ZM20.0931 84.8373H22.3257V87.0699H20.0931V84.8373ZM24.5582 84.8373H26.7908V87.0699H24.5582V84.8373ZM31.2559 84.8373H33.4885V87.0699H31.2559V84.8373ZM33.4885 84.8373H35.721V87.0699H33.4885V84.8373ZM35.721 84.8373H37.9536V87.0699H35.721V84.8373ZM37.9536 84.8373H40.1862V87.0699H37.9536V84.8373ZM40.1862 84.8373H42.4187V87.0699H40.1862V84.8373ZM55.8141 84.8373H58.0466V87.0699H55.8141V84.8373ZM62.5117 84.8373H64.7443V87.0699H62.5117V84.8373ZM64.7443 84.8373H66.9769V87.0699H64.7443V84.8373ZM69.2094 84.8373H71.442V87.0699H69.2094V84.8373ZM71.442 84.8373H73.6745V87.0699H71.442V84.8373ZM84.8373 84.8373H87.0699V87.0699H84.8373V84.8373ZM87.0699 84.8373H89.3024V87.0699H87.0699V84.8373ZM89.3024 84.8373H91.535V87.0699H89.3024V84.8373ZM91.535 84.8373H93.7675V87.0699H91.535V84.8373ZM2.23267 87.0699H4.46522V89.3024H2.23267V87.0699ZM6.69778 87.0699H8.93034V89.3024H6.69778V87.0699ZM8.93034 87.0699H11.1629V89.3024H8.93034V87.0699ZM11.1629 87.0699H13.3955V89.3024H11.1629V87.0699ZM15.628 87.0699H17.8606V89.3024H15.628V87.0699ZM20.0931 87.0699H22.3257V89.3024H20.0931V87.0699ZM26.7908 87.0699H29.0234V89.3024H26.7908V87.0699ZM29.0234 87.0699H31.2559V89.3024H29.0234V87.0699ZM42.4187 87.0699H44.6513V89.3024H42.4187V87.0699ZM51.3489 87.0699H53.5815V89.3024H51.3489V87.0699ZM53.5815 87.0699H55.8141V89.3024H53.5815V87.0699ZM55.8141 87.0699H58.0466V89.3024H55.8141V87.0699ZM58.0466 87.0699H60.2792V89.3024H58.0466V87.0699ZM60.2792 87.0699H62.5117V89.3024H60.2792V87.0699ZM62.5117 87.0699H64.7443V89.3024H62.5117V87.0699ZM66.9769 87.0699H69.2094V89.3024H66.9769V87.0699ZM73.6745 87.0699H75.9071V89.3024H73.6745V87.0699ZM75.9071 87.0699H78.1396V89.3024H75.9071V87.0699ZM78.1396 87.0699H80.3722V89.3024H78.1396V87.0699ZM82.6048 87.0699H84.8373V89.3024H82.6048V87.0699ZM84.8373 87.0699H87.0699V89.3024H84.8373V87.0699ZM89.3024 87.0699H91.535V89.3024H89.3024V87.0699ZM2.23267 89.3024H4.46522V91.535H2.23267V89.3024ZM15.628 89.3024H17.8606V91.535H15.628V89.3024ZM20.0931 89.3024H22.3257V91.535H20.0931V89.3024ZM26.7908 89.3024H29.0234V91.535H26.7908V89.3024ZM37.9536 89.3024H40.1862V91.535H37.9536V89.3024ZM42.4187 89.3024H44.6513V91.535H42.4187V89.3024ZM44.6513 89.3024H46.8838V91.535H44.6513V89.3024ZM46.8838 89.3024H49.1164V91.535H46.8838V89.3024ZM49.1164 89.3024H51.3489V91.535H49.1164V89.3024ZM60.2792 89.3024H62.5117V91.535H60.2792V89.3024ZM62.5117 89.3024H64.7443V91.535H62.5117V89.3024ZM64.7443 89.3024H66.9769V91.535H64.7443V89.3024ZM69.2094 89.3024H71.442V91.535H69.2094V89.3024ZM71.442 89.3024H73.6745V91.535H71.442V89.3024ZM75.9071 89.3024H78.1396V91.535H75.9071V89.3024ZM78.1396 89.3024H80.3722V91.535H78.1396V89.3024ZM80.3722 89.3024H82.6048V91.535H80.3722V89.3024ZM89.3024 89.3024H91.535V91.535H89.3024V89.3024ZM2.23267 91.535H4.46522V93.7675H2.23267V91.535ZM4.46522 91.535H6.69778V93.7675H4.46522V91.535ZM6.69778 91.535H8.93034V93.7675H6.69778V91.535ZM8.93034 91.535H11.1629V93.7675H8.93034V91.535ZM11.1629 91.535H13.3955V93.7675H11.1629V91.535ZM13.3955 91.535H15.628V93.7675H13.3955V91.535ZM15.628 91.535H17.8606V93.7675H15.628V91.535ZM20.0931 91.535H22.3257V93.7675H20.0931V91.535ZM22.3257 91.535H24.5582V93.7675H22.3257V91.535ZM24.5582 91.535H26.7908V93.7675H24.5582V91.535ZM26.7908 91.535H29.0234V93.7675H26.7908V91.535ZM33.4885 91.535H35.721V93.7675H33.4885V91.535ZM37.9536 91.535H40.1862V93.7675H37.9536V91.535ZM44.6513 91.535H46.8838V93.7675H44.6513V91.535ZM46.8838 91.535H49.1164V93.7675H46.8838V91.535ZM49.1164 91.535H51.3489V93.7675H49.1164V91.535ZM51.3489 91.535H53.5815V93.7675H51.3489V91.535ZM53.5815 91.535H55.8141V93.7675H53.5815V91.535ZM55.8141 91.535H58.0466V93.7675H55.8141V91.535ZM58.0466 91.535H60.2792V93.7675H58.0466V91.535ZM66.9769 91.535H69.2094V93.7675H66.9769V91.535ZM80.3722 91.535H82.6048V93.7675H80.3722V91.535Z" fill="#1A1D29"/>
    </g>
    <defs>
        <clipPath id="clip0_561_132338">
            <rect width="96" height="96" fill="white"/>
        </clipPath>
    </defs>
</svg>
