<svg width="24" height="24" viewBox="0 0 24 24" fill="none" xmlns="http://www.w3.org/2000/svg">
<path fill-rule="evenodd" clip-rule="evenodd" d="M16.7733 4.33799C17.2615 3.84983 18.053 3.84983 18.5411 4.33799L20.6624 6.45931C21.1506 6.94746 21.1506 7.73892 20.6624 8.22707L17.6572 11.2323L14.8288 8.40385L6.99904 16.2336L6.11516 18.8853L8.76681 18.0014L15.5359 11.2323L16.5966 12.2929L9.78574 19.1038C9.64852 19.241 9.48124 19.3444 9.29714 19.4057L6.11516 20.4664C5.13796 20.7921 4.20829 19.8625 4.53402 18.8853L5.59468 15.7033C5.65605 15.5192 5.75943 15.3519 5.89665 15.2147L16.7733 4.33799ZM15.8895 7.34319L17.6572 9.11096L19.425 7.34319L17.6572 5.57542L15.8895 7.34319Z" fill="#6A6D8F"/>
</svg>
