<svg width="18" height="16" viewBox="0 0 18 16" fill="none" xmlns="http://www.w3.org/2000/svg">
<path fill-rule="evenodd" clip-rule="evenodd" d="M1.46961 14.4697L4.11253 11.8268C2.39848 10.9457 0.971124 9.61576 0 7.99999C1.79648 5.01099 5.15423 2.99999 9 2.99999C10.1884 2.99999 11.3302 3.19202 12.3937 3.54559L15.4696 0.469666L16.5303 1.53033L2.53027 15.5303L1.46961 14.4697ZM5.63452 10.3048L5.23624 10.703C3.86593 10.0897 2.68902 9.15275 1.81026 7.99999C2.49833 7.09738 3.36919 6.32709 4.37257 5.74085C4.29234 6.0976 4.25 6.46895 4.25 6.84995C4.25 8.19044 4.77649 9.41545 5.63452 10.3048ZM6.69538 9.2439L11.1817 4.75761C10.4845 4.58948 9.75374 4.49999 9 4.49999C8.07561 4.49999 7.18582 4.63459 6.35009 4.88376C5.97317 5.43693 5.75 6.11423 5.75 6.84995C5.75 7.79177 6.1134 8.6339 6.69538 9.2439Z" fill="#6A6D8F"/>
<path d="M7.20868 12.8519C7.79061 12.9493 8.38915 13 9 13C12.8458 13 16.2035 10.989 18 7.99999C17.2751 6.79392 16.296 5.74708 15.1333 4.92734L14.0541 6.00648C14.8788 6.55257 15.6011 7.22786 16.1897 7.99999C14.9592 9.61428 13.1439 10.8053 11.0316 11.2772C12.5443 10.5386 13.6083 9.00191 13.7368 7.21676L12.2407 7.10901C12.1382 8.53182 11.2048 9.68718 9.96959 10.091L7.20868 12.8519Z" fill="#6A6D8F"/>
</svg>
