<svg width="18" height="16" viewBox="0 0 18 16" fill="none" xmlns="http://www.w3.org/2000/svg">
<path fill-rule="evenodd" clip-rule="evenodd" d="M6.35653 4.87435C5.97572 5.42924 5.75 6.11006 5.75 6.84996C5.75 8.75069 7.2301 10.2454 9 10.2454C10.689 10.2454 12.1128 8.88575 12.2407 7.10902L13.7368 7.21677C13.5561 9.72663 11.5261 11.7454 9 11.7454C6.35162 11.7454 4.25 9.52817 4.25 6.84996C4.25 5.801 4.57094 4.82527 5.11977 4.02557L6.35653 4.87435Z" fill="#38405B"/>
<path fill-rule="evenodd" clip-rule="evenodd" d="M1.81026 8C3.42053 10.1124 6.03196 11.5 9 11.5C11.968 11.5 14.5795 10.1124 16.1897 8C14.5795 5.88764 11.968 4.5 9 4.5C6.03196 4.5 3.42053 5.88764 1.81026 8ZM18 8C16.2035 5.01099 12.8458 3 9 3C5.15423 3 1.79648 5.01099 0 8C1.79648 10.989 5.15423 13 9 13C12.8458 13 16.2035 10.989 18 8Z" fill="#38405B"/>
</svg>
