<svg width="32" height="32" viewBox="0 0 32 32" fill="none" xmlns="http://www.w3.org/2000/svg">
<rect width="32" height="32" rx="8" fill="#F5F5FD"/>
<path fill-rule="evenodd" clip-rule="evenodd" d="M13.3565 12.8744C12.9757 13.4293 12.75 14.1101 12.75 14.85C12.75 16.7508 14.2301 18.2455 16 18.2455C17.689 18.2455 19.1128 16.8858 19.2407 15.1091L20.7368 15.2168C20.5561 17.7267 18.5261 19.7455 16 19.7455C13.3516 19.7455 11.25 17.5282 11.25 14.85C11.25 13.8011 11.5709 12.8253 12.1198 12.0256L13.3565 12.8744Z" fill="#6A6D8F"/>
<path fill-rule="evenodd" clip-rule="evenodd" d="M8.81026 16C10.4205 18.1124 13.032 19.5 16 19.5C18.968 19.5 21.5795 18.1124 23.1897 16C21.5795 13.8876 18.968 12.5 16 12.5C13.032 12.5 10.4205 13.8876 8.81026 16ZM25 16C23.2035 13.011 19.8458 11 16 11C12.1542 11 8.79648 13.011 7 16C8.79648 18.989 12.1542 21 16 21C19.8458 21 23.2035 18.989 25 16Z" fill="#6A6D8F"/>
</svg>
